<?xml version="1.0" encoding="UTF-8" standalone="no"?>
<!-- Created with Inkscape (http://www.inkscape.org/) -->

<svg
   width="210mm"
   height="297mm"
   viewBox="0 0 210 297"
   version="1.1"
   id="svg1"
   inkscape:version="1.4.2 (ebf0e940d0, 2025-05-08)"
   sodipodi:docname="kanagawa-logo-neon.svg"
   xmlns:inkscape="http://www.inkscape.org/namespaces/inkscape"
   xmlns:sodipodi="http://sodipodi.sourceforge.net/DTD/sodipodi-0.dtd"
   xmlns:xlink="http://www.w3.org/1999/xlink"
   xmlns="http://www.w3.org/2000/svg"
   xmlns:svg="http://www.w3.org/2000/svg">
  <sodipodi:namedview
     id="namedview1"
     pagecolor="#ffffff"
     bordercolor="#000000"
     borderopacity="0.25"
     inkscape:showpageshadow="2"
     inkscape:pageopacity="0.0"
     inkscape:pagecheckerboard="0"
     inkscape:deskcolor="#d1d1d1"
     inkscape:document-units="mm"
     inkscape:zoom="0.71179153"
     inkscape:cx="396.88587"
     inkscape:cy="561.25984"
     inkscape:window-width="1920"
     inkscape:window-height="1008"
     inkscape:window-x="0"
     inkscape:window-y="0"
     inkscape:window-maximized="1"
     inkscape:current-layer="layer1" />
  <defs
     id="defs1">
    <linearGradient
       inkscape:collect="always"
       xlink:href="#linearGradient19"
       id="linearGradient39"
       gradientUnits="userSpaceOnUse"
       x1="909.11188"
       y1="647.52655"
       x2="1397.6882"
       y2="647.52655" />
    <linearGradient
       id="linearGradient19"
       inkscape:collect="always">
      <stop
         style="stop-color:#000000;stop-opacity:0;"
         offset="0"
         id="stop20" />
      <stop
         style="stop-color:#000000;stop-opacity:0;"
         offset="1"
         id="stop21" />
    </linearGradient>
    <filter
       inkscape:collect="always"
       style="color-interpolation-filters:sRGB"
       id="filter4"
       x="-0.11259175"
       y="-0.11793975"
       width="1.2251835"
       height="1.2358795">
      <feGaussianBlur
         inkscape:collect="always"
         stdDeviation="18.895428"
         id="feGaussianBlur4" />
    </filter>
    <filter
       inkscape:collect="always"
       style="color-interpolation-filters:sRGB"
       id="filter22"
       x="-0.055256359"
       y="-0.057880984"
       width="1.1105127"
       height="1.115762">
      <feGaussianBlur
         inkscape:collect="always"
         stdDeviation="8.0303721"
         id="feGaussianBlur22" />
    </filter>
    <linearGradient
       inkscape:collect="always"
       xlink:href="#linearGradient19"
       id="linearGradient1"
       gradientUnits="userSpaceOnUse"
       x1="909.11188"
       y1="647.52655"
       x2="1397.6882"
       y2="647.52655" />
    <linearGradient
       inkscape:collect="always"
       xlink:href="#linearGradient19"
       id="linearGradient2"
       gradientUnits="userSpaceOnUse"
       x1="909.11188"
       y1="647.52655"
       x2="1397.6882"
       y2="647.52655" />
    <linearGradient
       inkscape:collect="always"
       xlink:href="#linearGradient19"
       id="linearGradient3"
       gradientUnits="userSpaceOnUse"
       x1="909.11188"
       y1="647.52655"
       x2="1397.6882"
       y2="647.52655" />
    <linearGradient
       inkscape:collect="always"
       xlink:href="#linearGradient19"
       id="linearGradient4"
       gradientUnits="userSpaceOnUse"
       x1="909.11188"
       y1="647.52655"
       x2="1397.6882"
       y2="647.52655" />
    <linearGradient
       inkscape:collect="always"
       xlink:href="#linearGradient19"
       id="linearGradient5"
       gradientUnits="userSpaceOnUse"
       x1="909.11188"
       y1="647.52655"
       x2="1397.6882"
       y2="647.52655" />
    <linearGradient
       inkscape:collect="always"
       xlink:href="#linearGradient19"
       id="linearGradient6"
       gradientUnits="userSpaceOnUse"
       x1="909.11188"
       y1="647.52655"
       x2="1397.6882"
       y2="647.52655" />
    <linearGradient
       inkscape:collect="always"
       xlink:href="#linearGradient19"
       id="linearGradient7"
       gradientUnits="userSpaceOnUse"
       x1="909.11188"
       y1="647.52655"
       x2="1397.6882"
       y2="647.52655" />
    <linearGradient
       inkscape:collect="always"
       xlink:href="#linearGradient19"
       id="linearGradient8"
       gradientUnits="userSpaceOnUse"
       x1="909.11188"
       y1="647.52655"
       x2="1397.6882"
       y2="647.52655" />
    <linearGradient
       inkscape:collect="always"
       xlink:href="#linearGradient19"
       id="linearGradient9"
       gradientUnits="userSpaceOnUse"
       x1="909.11188"
       y1="647.52655"
       x2="1397.6882"
       y2="647.52655" />
  </defs>
  <g
     inkscape:label="Layer 1"
     inkscape:groupmode="layer"
     id="layer1">
    <g
       id="g9"
       transform="matrix(1.2345382,0,0,1.2345382,-13.995046,-8.3473278)">
      <g
         id="g64"
         transform="matrix(7.1929861,0,0,7.1929861,-27.571857,-1911.1794)">
        <g
           style="opacity:1;fill:url(#linearGradient2);fill-opacity:1;stroke:#ce0000;stroke-width:11.7154;stroke-dasharray:none;stroke-opacity:1;filter:url(#filter4)"
           id="g3"
           transform="matrix(0.0451686,0,0,0.0451686,-34.680551,252.41733)">
          <path
             d="M 926.003,597.195 V 489.864 h 174.037 v -59.426 h 106.72 v 59.426 h 174.04 v 107.331 h -174.04 v 16.977 c 0,19.81 3.84,38.403 11.52,55.789 7.28,17.383 17.39,32.543 30.32,45.481 12.94,12.934 28.1,23.041 45.48,30.32 17.39,7.68 35.98,11.523 55.79,11.523 h 30.93 v 107.33 h -30.93 c -41.24,0 -79.24,-9.095 -114,-27.286 -34.77,-18.19 -59.43,-42.852 -82.47,-73.98 -23.04,31.128 -47.71,55.79 -82.47,73.98 -34.77,18.191 -72.767,27.286 -114.003,27.286 H 926 v -107.33 h 30.927 c 19.81,0 38.406,-3.843 55.793,-11.523 17.38,-7.279 32.54,-17.383 45.48,-30.32 12.93,-12.938 23.04,-28.098 30.32,-45.481 7.68,-17.382 11.52,-35.979 11.52,-55.789 v -16.977 z"
             fill="#f2f2f2"
             id="path3"
             style="fill:url(#linearGradient1);fill-opacity:1;stroke:#ce0000;stroke-width:11.7154;stroke-dasharray:none;stroke-opacity:1" />
        </g>
        <g
           style="opacity:1;fill:url(#linearGradient4);fill-opacity:1;stroke:#ce0000;stroke-width:11.7154;stroke-dasharray:none;stroke-opacity:0.991374;filter:url(#filter22)"
           id="g22"
           transform="matrix(0.0451686,0,0,0.0451686,-34.680551,252.41733)">
          <path
             d="M 926.003,597.195 V 489.864 h 174.037 v -59.426 h 106.72 v 59.426 h 174.04 v 107.331 h -174.04 v 16.977 c 0,19.81 3.84,38.403 11.52,55.789 7.28,17.383 17.39,32.543 30.32,45.481 12.94,12.934 28.1,23.041 45.48,30.32 17.39,7.68 35.98,11.523 55.79,11.523 h 30.93 v 107.33 h -30.93 c -41.24,0 -79.24,-9.095 -114,-27.286 -34.77,-18.19 -59.43,-42.852 -82.47,-73.98 -23.04,31.128 -47.71,55.79 -82.47,73.98 -34.77,18.191 -72.767,27.286 -114.003,27.286 H 926 v -107.33 h 30.927 c 19.81,0 38.406,-3.843 55.793,-11.523 17.38,-7.279 32.54,-17.383 45.48,-30.32 12.93,-12.938 23.04,-28.098 30.32,-45.481 7.68,-17.382 11.52,-35.979 11.52,-55.789 v -16.977 z"
             fill="#f2f2f2"
             id="path22"
             style="fill:url(#linearGradient3);fill-opacity:1;stroke:#ce0000;stroke-width:11.7154;stroke-dasharray:none;stroke-opacity:0.991374" />
        </g>
        <g
           style="opacity:1;fill:url(#linearGradient6);fill-opacity:1;stroke:#ce0000;stroke-width:11.7154;stroke-dasharray:none;stroke-opacity:0.991374;filter:url(#filter22)"
           id="g24"
           transform="matrix(0.0451686,0,0,0.0451686,-34.680551,252.41733)">
          <path
             d="M 926.003,597.195 V 489.864 h 174.037 v -59.426 h 106.72 v 59.426 h 174.04 v 107.331 h -174.04 v 16.977 c 0,19.81 3.84,38.403 11.52,55.789 7.28,17.383 17.39,32.543 30.32,45.481 12.94,12.934 28.1,23.041 45.48,30.32 17.39,7.68 35.98,11.523 55.79,11.523 h 30.93 v 107.33 h -30.93 c -41.24,0 -79.24,-9.095 -114,-27.286 -34.77,-18.19 -59.43,-42.852 -82.47,-73.98 -23.04,31.128 -47.71,55.79 -82.47,73.98 -34.77,18.191 -72.767,27.286 -114.003,27.286 H 926 v -107.33 h 30.927 c 19.81,0 38.406,-3.843 55.793,-11.523 17.38,-7.279 32.54,-17.383 45.48,-30.32 12.93,-12.938 23.04,-28.098 30.32,-45.481 7.68,-17.382 11.52,-35.979 11.52,-55.789 v -16.977 z"
             fill="#f2f2f2"
             id="path24"
             style="fill:url(#linearGradient5);fill-opacity:1;stroke:#ce0000;stroke-width:11.7154;stroke-dasharray:none;stroke-opacity:0.991374" />
        </g>
        <g
           style="opacity:1;fill:url(#linearGradient8);fill-opacity:1;stroke:#ce0000;stroke-width:11.7154;stroke-dasharray:none;stroke-opacity:0.991374;filter:url(#filter22)"
           id="g25"
           transform="matrix(0.0451686,0,0,0.0451686,-34.680551,252.41733)">
          <path
             d="M 926.003,597.195 V 489.864 h 174.037 v -59.426 h 106.72 v 59.426 h 174.04 v 107.331 h -174.04 v 16.977 c 0,19.81 3.84,38.403 11.52,55.789 7.28,17.383 17.39,32.543 30.32,45.481 12.94,12.934 28.1,23.041 45.48,30.32 17.39,7.68 35.98,11.523 55.79,11.523 h 30.93 v 107.33 h -30.93 c -41.24,0 -79.24,-9.095 -114,-27.286 -34.77,-18.19 -59.43,-42.852 -82.47,-73.98 -23.04,31.128 -47.71,55.79 -82.47,73.98 -34.77,18.191 -72.767,27.286 -114.003,27.286 H 926 v -107.33 h 30.927 c 19.81,0 38.406,-3.843 55.793,-11.523 17.38,-7.279 32.54,-17.383 45.48,-30.32 12.93,-12.938 23.04,-28.098 30.32,-45.481 7.68,-17.382 11.52,-35.979 11.52,-55.789 v -16.977 z"
             fill="#f2f2f2"
             id="path25"
             style="fill:url(#linearGradient7);fill-opacity:1;stroke:#ce0000;stroke-width:11.7154;stroke-dasharray:none;stroke-opacity:0.991374" />
        </g>
        <g
           style="display:inline;opacity:1;fill:url(#linearGradient39);fill-opacity:1;stroke:#ce0000;stroke-width:11.7154;stroke-dasharray:none;stroke-opacity:0.991374;filter:url(#filter22)"
           id="g26"
           transform="matrix(0.0451686,0,0,0.0451686,-34.680551,252.41733)">
          <path
             d="M 926.003,597.195 V 489.864 h 174.037 v -59.426 h 106.72 v 59.426 h 174.04 v 107.331 h -174.04 v 16.977 c 0,19.81 3.84,38.403 11.52,55.789 7.28,17.383 17.39,32.543 30.32,45.481 12.94,12.934 28.1,23.041 45.48,30.32 17.39,7.68 35.98,11.523 55.79,11.523 h 30.93 v 107.33 h -30.93 c -41.24,0 -79.24,-9.095 -114,-27.286 -34.77,-18.19 -59.43,-42.852 -82.47,-73.98 -23.04,31.128 -47.71,55.79 -82.47,73.98 -34.77,18.191 -72.767,27.286 -114.003,27.286 H 926 v -107.33 h 30.927 c 19.81,0 38.406,-3.843 55.793,-11.523 17.38,-7.279 32.54,-17.383 45.48,-30.32 12.93,-12.938 23.04,-28.098 30.32,-45.481 7.68,-17.382 11.52,-35.979 11.52,-55.789 v -16.977 z"
             fill="#f2f2f2"
             id="path26"
             style="fill:url(#linearGradient9);fill-opacity:1;stroke:#ce0000;stroke-width:11.7154;stroke-dasharray:none;stroke-opacity:0.991374" />
        </g>
      </g>
    </g>
  </g>
</svg>
