<?xml version="1.0" encoding="UTF-8" standalone="no"?>
<!-- Created with Inkscape (http://www.inkscape.org/) -->

<svg
   width="210mm"
   height="297mm"
   viewBox="0 0 210 297"
   version="1.1"
   id="svg1"
   inkscape:version="1.4.2 (ebf0e940d0, 2025-05-08)"
   sodipodi:docname="voxi-cover.svg"
   xmlns:inkscape="http://www.inkscape.org/namespaces/inkscape"
   xmlns:sodipodi="http://sodipodi.sourceforge.net/DTD/sodipodi-0.dtd"
   xmlns:xlink="http://www.w3.org/1999/xlink"
   xmlns="http://www.w3.org/2000/svg"
   xmlns:svg="http://www.w3.org/2000/svg">
  <sodipodi:namedview
     id="namedview1"
     pagecolor="#ffffff"
     bordercolor="#000000"
     borderopacity="0.25"
     inkscape:showpageshadow="2"
     inkscape:pageopacity="0.0"
     inkscape:pagecheckerboard="0"
     inkscape:deskcolor="#d1d1d1"
     inkscape:document-units="mm"
     inkscape:zoom="0.53104448"
     inkscape:cx="6.590785"
     inkscape:cy="445.34876"
     inkscape:window-width="1920"
     inkscape:window-height="1008"
     inkscape:window-x="0"
     inkscape:window-y="0"
     inkscape:window-maximized="1"
     inkscape:current-layer="layer1" />
  <defs
     id="defs1">
    <linearGradient
       id="linearGradient900"
       inkscape:collect="always">
      <stop
         style="stop-color:#b6bcc2;stop-opacity:1;"
         offset="0"
         id="stop900" />
      <stop
         style="stop-color:#ff9b00;stop-opacity:1;"
         offset="0.28892836"
         id="stop902" />
      <stop
         style="stop-color:#8e6b2d;stop-opacity:1;"
         offset="0.60655993"
         id="stop903" />
      <stop
         style="stop-color:#1f3c5b;stop-opacity:0.20901419;"
         offset="1"
         id="stop901" />
    </linearGradient>
    <linearGradient
       id="linearGradient894"
       inkscape:collect="always">
      <stop
         style="stop-color:#b6bcc2;stop-opacity:1;"
         offset="0"
         id="stop894" />
      <stop
         style="stop-color:#1f3c5b;stop-opacity:0.5;"
         offset="0.24490343"
         id="stop896" />
      <stop
         style="stop-color:#1f3c5b;stop-opacity:0.74901961;"
         offset="0.57617098"
         id="stop941" />
      <stop
         style="stop-color:#1f3c5b;stop-opacity:1;"
         offset="1"
         id="stop895" />
    </linearGradient>
    <linearGradient
       id="linearGradient601"
       inkscape:collect="always">
      <stop
         style="stop-color:#ff9b00;stop-opacity:1;"
         offset="0"
         id="stop601" />
      <stop
         style="stop-color:#ff9b00;stop-opacity:0.75;"
         offset="0.15981473"
         id="stop603" />
      <stop
         style="stop-color:#ff9b00;stop-opacity:0.5;"
         offset="0.39953682"
         id="stop604" />
      <stop
         style="stop-color:#ff9b00;stop-opacity:0.25;"
         offset="0.6683026"
         id="stop605" />
      <stop
         style="stop-color:#ff9b00;stop-opacity:0;"
         offset="1"
         id="stop602" />
    </linearGradient>
    <linearGradient
       id="linearGradient14"
       inkscape:collect="always">
      <stop
         style="stop-color:#1f3c5b;stop-opacity:1;"
         offset="0"
         id="stop14" />
      <stop
         style="stop-color:#1f3c5b;stop-opacity:0;"
         offset="1"
         id="stop15" />
    </linearGradient>
    <inkscape:path-effect
       effect="perspective-envelope"
       up_left_point="0,172.50833"
       up_right_point="210,171.45"
       down_left_point="-107.42083,296.99999"
       down_right_point="325.8875,296.99999"
       id="path-effect10"
       is_visible="true"
       lpeversion="1"
       deform_type="perspective"
       horizontal_mirror="false"
       vertical_mirror="false"
       overflow_perspective="false" />
    <inkscape:path-effect
       effect="perspective-envelope"
       up_left_point="0,172.24375"
       up_right_point="210,172.24375"
       down_left_point="-196.08009,296.99999"
       down_right_point="392.93799,296.99999"
       id="path-effect8"
       is_visible="true"
       lpeversion="1"
       deform_type="perspective"
       horizontal_mirror="false"
       vertical_mirror="false"
       overflow_perspective="false" />
    <clipPath
       clipPathUnits="userSpaceOnUse"
       id="clipPath10">
      <rect
         style="fill:#1a1a1a;stroke:#000000;stroke-width:0.2"
         id="rect10"
         width="210"
         height="297"
         x="0"
         y="0" />
    </clipPath>
    <clipPath
       clipPathUnits="userSpaceOnUse"
       id="clipPath11">
      <rect
         style="fill:#333333;stroke:#ff00ff;stroke-width:0.529167;stroke-dasharray:none;stroke-opacity:1"
         id="rect12"
         width="210"
         height="297"
         x="0"
         y="0"
         d="m 0,172.50833 210,-1.05833 115.8875,125.54999 -433.30833,0 z" />
    </clipPath>
    <linearGradient
       inkscape:collect="always"
       xlink:href="#linearGradient14"
       id="linearGradient15"
       x1="109.06097"
       y1="297"
       x2="105.00161"
       y2="172.03317"
       gradientUnits="userSpaceOnUse" />
    <linearGradient
       inkscape:collect="always"
       xlink:href="#linearGradient601"
       id="linearGradient602"
       x1="62.666672"
       y1="167.70245"
       x2="62.666672"
       y2="129.29755"
       gradientUnits="userSpaceOnUse" />
    <filter
       inkscape:collect="always"
       style="color-interpolation-filters:sRGB"
       id="filter862"
       x="-0.12192154"
       y="-0.12385365"
       width="1.2438431"
       height="1.2477073">
      <feGaussianBlur
         inkscape:collect="always"
         stdDeviation="1.9487092"
         id="feGaussianBlur862" />
    </filter>
    <linearGradient
       inkscape:collect="always"
       xlink:href="#linearGradient601"
       id="linearGradient865"
       gradientUnits="userSpaceOnUse"
       x1="62.666672"
       y1="167.70245"
       x2="62.666672"
       y2="129.29755" />
    <linearGradient
       inkscape:collect="always"
       xlink:href="#linearGradient601"
       id="linearGradient866"
       gradientUnits="userSpaceOnUse"
       x1="62.666672"
       y1="167.70245"
       x2="62.666672"
       y2="129.29755" />
    <linearGradient
       inkscape:collect="always"
       xlink:href="#linearGradient894"
       id="linearGradient895"
       x1="105.95658"
       y1="158.43271"
       x2="106.08664"
       y2="146.32672"
       gradientUnits="userSpaceOnUse"
       gradientTransform="matrix(1,0,0,1.0000079,0,-0.00115836)" />
    <linearGradient
       inkscape:collect="always"
       xlink:href="#linearGradient900"
       id="linearGradient899"
       x1="105.61254"
       y1="179.59084"
       x2="105.64618"
       y2="167.12572"
       gradientUnits="userSpaceOnUse" />
    <linearGradient
       inkscape:collect="always"
       xlink:href="#linearGradient601"
       id="linearGradient915"
       x1="109.74346"
       y1="77.27433"
       x2="109.74346"
       y2="250.63541"
       gradientUnits="userSpaceOnUse" />
    <filter
       inkscape:collect="always"
       style="color-interpolation-filters:sRGB"
       id="filter945"
       x="-0.0051173979"
       y="-0.055542175"
       width="1.0102348"
       height="1.1110843">
      <feGaussianBlur
         inkscape:collect="always"
         stdDeviation="0.33270641"
         id="feGaussianBlur945" />
    </filter>
    <filter
       inkscape:collect="always"
       style="color-interpolation-filters:sRGB"
       id="filter946"
       x="-0.004619671"
       y="-0.022752722"
       width="1.0092393"
       height="1.0455054">
      <feGaussianBlur
         inkscape:collect="always"
         stdDeviation="0.33270641"
         id="feGaussianBlur946" />
    </filter>
    <filter
       inkscape:collect="always"
       style="color-interpolation-filters:sRGB"
       id="filter947"
       x="-0.0046196709"
       y="-0.066401785"
       width="1.0092393"
       height="1.1328036">
      <feGaussianBlur
         inkscape:collect="always"
         stdDeviation="0.33270641"
         id="feGaussianBlur947" />
    </filter>
  </defs>
  <g
     inkscape:label="Layer 1"
     inkscape:groupmode="layer"
     id="layer1">
    <rect
       style="fill:#1a1a1a;stroke:#ff00ff;stroke-width:0.529167;stroke-dasharray:none;stroke-opacity:1"
       id="rect13"
       width="210"
       height="297"
       x="0"
       y="0" />
    <path
       d="M 0,172.50833 -107.42082,296.99998 M 13.12462,172.44219 -80.567414,296.99998 M 26.263194,172.37597 -53.655301,296.99998 M 39.415744,172.30969 -26.684294,296.99998 M 52.582292,172.24333 0.3458016,296.99998 M 65.762862,172.17691 27.435182,296.99998 M 78.957474,172.11041 54.58404,296.99998 M 92.166153,172.04384 81.792574,296.99998 M 105.38892,171.9772 109.06098,296.99998 M 118.6258,171.9105 136.38946,296.99998 M 131.8768,171.84371 163.77818,296.99998 M 145.14197,171.77686 191.2274,296.99998 m -32.80608,-125.29004 60.31597,125.29004 m -47.02243,-125.35704 74.59316,125.35704 m -61.28538,-125.4241 88.91721,125.4241 M 198.34466,171.50874 301.63295,296.99998 M -0.04661556,172.56235 210.04984,171.50399 M -2.4330257,175.328 212.6018,174.26874 M -4.933798,178.22618 215.27716,177.16716 M -7.5573551,181.26667 218.08506,180.20918 m -228.398028,4.25101 231.348598,-1.05443 m -234.246493,4.41284 237.350873,-1.04962 m -240.402363,4.58604 243.672913,-1.0428 m -246.890543,4.77176 250.340953,-1.03366 m -253.738667,4.97133 257.384207,-1.02183 m -260.977565,5.18622 264.835275,-1.00686 m -268.641672,5.41816 272.730622,-0.98828 m -276.769579,5.66909 281.111199,-0.96547 m -285.404708,5.94128 290.023178,-0.93774 m -294.596084,6.23735 299.518744,-0.90425 m -304.399231,6.56032 309.657151,-0.864 m -314.87734,6.91376 320.50599,-0.8158 m -326.102623,7.30183 332.142653,-0.7582 m -338.157968,7.72944 344.656168,-0.68943 m -351.138983,8.20246 358.149553,-0.60736 m -365.15656,8.72789 372.74257,-0.50937 m -380.340039,9.3142 388.575399,-0.39219 m -396.84124,9.9716 405.81304,-0.25175 m -414.8395,10.71265 424.65114,-0.0829"
       style="fill:none;stroke:url(#linearGradient15);stroke-width:1.05833333;stroke-dasharray:none;stroke-opacity:1"
       id="path10"
       inkscape:path-effect="#path-effect10"
       inkscape:original-d="M 0,0 V 296.99999 M 13.229166,0 V 296.99999 M 26.458333,0 V 296.99999 M 39.687499,0 V 296.99999 M 52.916665,0 V 296.99999 M 66.145832,0 V 296.99999 M 79.374998,0 V 296.99999 M 92.604165,0 V 296.99999 M 105.83333,0 V 296.99999 M 119.0625,0 V 296.99999 M 132.29166,0 V 296.99999 M 145.52083,0 V 296.99999 M 158.75,0 V 296.99999 M 171.97916,0 V 296.99999 M 185.20833,0 V 296.99999 M 198.4375,0 V 296.99999 M 0,0.26458333 H 210 M 0,13.49375 H 210 M 0,26.722916 H 210 M 0,39.952082 H 210 M 0,53.181249 H 210 M 0,66.410415 H 210 M 0,79.639582 H 210 M 0,92.868748 H 210 M 0,106.09791 H 210 M 0,119.32708 H 210 M 0,132.55625 H 210 M 0,145.78541 H 210 M 0,159.01458 H 210 M 0,172.24375 H 210 M 0,185.47291 H 210 M 0,198.70208 H 210 M 0,211.93125 H 210 M 0,225.16041 H 210 M 0,238.38958 H 210 M 0,251.61874 H 210 M 0,264.84791 H 210 M 0,278.07708 H 210 M 0,291.30624 h 210"
       clip-path="url(#clipPath11)" />
    <g
       id="g864"
       transform="matrix(2.9141738,0,0,2.9141738,-76.787202,-316.8903)"
       style="opacity:0.650534">
      <path
         id="path862"
         style="fill:url(#linearGradient866);stroke-width:0.325437;filter:url(#filter862)"
         d="M 62.666459,129.29753 A 19.202454,19.202454 0 0 0 43.486751,147.57135 H 81.846684 A 19.202454,19.202454 0 0 0 62.666459,129.29753 Z M 43.72808,151.67291 a 19.202454,19.202454 0 0 0 0.540536,2.32699 h 36.796203 a 19.202454,19.202454 0 0 0 0.540536,-2.32699 z m 1.892391,5.66787 a 19.202454,19.202454 0 0 0 0.817005,1.42317 h 32.458483 a 19.202454,19.202454 0 0 0 0.817005,-1.42317 z m 2.951241,4.20026 a 19.202454,19.202454 0 0 0 1.567346,1.51206 h 25.055319 a 19.202454,19.202454 0 0 0 1.567346,-1.51206 z m 4.834847,3.78117 a 19.202454,19.202454 0 0 0 4.331002,1.73684 h 9.858313 a 19.202454,19.202454 0 0 0 4.331002,-1.73684 z" />
      <path
         id="path863"
         style="fill:url(#linearGradient602);stroke-width:0.325437;filter:url(#filter862)"
         d="M 62.666459,129.29753 A 19.202454,19.202454 0 0 0 43.486751,147.57135 H 81.846684 A 19.202454,19.202454 0 0 0 62.666459,129.29753 Z M 43.72808,151.67291 a 19.202454,19.202454 0 0 0 0.540536,2.32699 h 36.796203 a 19.202454,19.202454 0 0 0 0.540536,-2.32699 z m 1.892391,5.66787 a 19.202454,19.202454 0 0 0 0.817005,1.42317 h 32.458483 a 19.202454,19.202454 0 0 0 0.817005,-1.42317 z m 2.951241,4.20026 a 19.202454,19.202454 0 0 0 1.567346,1.51206 h 25.055319 a 19.202454,19.202454 0 0 0 1.567346,-1.51206 z m 4.834847,3.78117 a 19.202454,19.202454 0 0 0 4.331002,1.73684 h 9.858313 a 19.202454,19.202454 0 0 0 4.331002,-1.73684 z" />
      <path
         id="path15"
         style="fill:url(#linearGradient865);stroke-width:0.325437"
         d="M 62.666459,129.29753 A 19.202454,19.202454 0 0 0 43.486751,147.57135 H 81.846684 A 19.202454,19.202454 0 0 0 62.666459,129.29753 Z M 43.72808,151.67291 a 19.202454,19.202454 0 0 0 0.540536,2.32699 h 36.796203 a 19.202454,19.202454 0 0 0 0.540536,-2.32699 z m 1.892391,5.66787 a 19.202454,19.202454 0 0 0 0.817005,1.42317 h 32.458483 a 19.202454,19.202454 0 0 0 0.817005,-1.42317 z m 2.951241,4.20026 a 19.202454,19.202454 0 0 0 1.567346,1.51206 h 25.055319 a 19.202454,19.202454 0 0 0 1.567346,-1.51206 z m 4.834847,3.78117 a 19.202454,19.202454 0 0 0 4.331002,1.73684 h 9.858313 a 19.202454,19.202454 0 0 0 4.331002,-1.73684 z" />
    </g>
    <g
       id="g947"
       transform="matrix(1.0352762,-0.25881905,-0.27740142,1.0352762,26.028648,-94.826569)">
      <path
         id="path879"
         style="font-size:42.3333px;font-family:FortySecondStreetHB;-inkscape-font-specification:'FortySecondStreetHB, Normal';fill:#b6bcc2;fill-opacity:1;stroke-width:0.325437;filter:url(#filter946)"
         d="m 74.04396,146.40769 c -4.854218,0 -9.00316,1.72143 -12.446268,5.16454 -3.414887,3.41489 -5.122168,7.53552 -5.122168,12.36152 0,4.82599 1.721434,8.96079 5.164542,12.40389 3.443109,3.44312 7.577898,5.16455 12.403894,5.16455 4.825997,0 8.946117,-1.72143 12.361003,-5.16455 3.443109,-3.4431 5.165059,-7.5779 5.165059,-12.40389 0,-4.79777 -1.72195,-8.91841 -5.165059,-12.36152 -3.443108,-3.44311 -7.563228,-5.16454 -12.361003,-5.16454 z m -50.757625,1.48156 10.37146,32.13137 h 6.095752 l -10.37146,-32.13137 z m 7.61969,0 9.609749,29.80283 9.652124,-29.80283 H 44.07163 l -3.555856,10.92233 -3.51348,-10.92233 z m 20.785811,0 -10.413834,32.13137 h 6.095752 l 10.413834,-32.13137 z m 36.872168,0 9.779248,16.42535 -9.356018,15.70602 h 6.773747 l 9.355499,-15.70602 -9.779246,-16.42535 z m 8.424292,0 8.974644,15.02854 8.93227,-15.02854 h -6.73085 l -2.20142,3.68298 -2.20142,-3.68298 z m 19.600354,0 -9.77873,16.42535 9.3555,15.70602 h 6.73085 l -9.3555,-15.70602 9.82111,-16.42535 z m 9.05939,0 v 32.13137 h 5.84202 v -32.13137 z m 7.28121,0 v 32.13137 h 5.84202 v -32.13137 z m 20.48919,0 v 32.13137 h 5.84202 v -32.13137 z m 7.28173,0 v 32.13137 h 5.84202 v -32.13137 z m 7.49308,0 v 5.63066 h 17.77979 c -3.58421,5.87022 -6.16636,11.54298 -7.74681,17.01809 -0.93133,3.13266 -1.62274,6.29352 -2.07429,9.48262 h 5.88388 c 0.42333,-2.73755 1.01618,-5.39046 1.77818,-7.95868 1.12889,-3.89467 2.90694,-8.07192 5.33404,-12.53102 0.84667,-1.55222 3.17511,-5.43279 6.98511,-11.64167 z m -94.14929,4.36046 c 3.217332,0 5.968796,1.14325 8.254794,3.42925 2.285998,2.286 3.429248,5.03746 3.429248,8.25479 0,3.24555 -1.14325,6.01117 -3.429248,8.29717 -2.285998,2.286 -5.037462,3.42925 -8.254794,3.42925 -3.245552,0 -6.011686,-1.14325 -8.297684,-3.42925 -2.285998,-2.31422 -3.428732,-5.07984 -3.428732,-8.29717 0,-3.21733 1.142734,-5.96879 3.428732,-8.25479 2.285998,-2.286 5.052132,-3.42925 8.297684,-3.42925 z m 0,1.43919 c -2.850442,0 -5.27795,1.00224 -7.281726,3.00601 -2.003777,2.00378 -3.005501,4.41662 -3.005501,7.23884 0,2.82222 1.001724,5.24922 3.005501,7.28121 2.003776,2.00378 4.431284,3.00602 7.281726,3.00602 2.822221,0 5.235059,-1.00224 7.238835,-3.00602 2.003776,-2.03199 3.005501,-4.45899 3.005501,-7.28121 0,-2.82222 -1.001725,-5.23506 -3.005501,-7.23884 -2.003776,-2.00377 -4.416614,-3.00601 -7.238835,-3.00601 z m 94.14929,1.22783 v 5.58829 h 5.96863 c -2.59644,5.75732 -4.38864,12.2625 -5.37642,19.5156 h 5.8844 c 1.46755,-9.31332 4.38884,-17.68145 8.76329,-25.10389 z m -94.14929,4.61419 c 1.213555,0 2.243585,0.43769 3.090251,1.31258 0.874889,0.84666 1.312065,1.87669 1.312065,3.09025 0,1.21355 -0.437176,2.25774 -1.312065,3.13262 -0.846666,0.87489 -1.876696,1.31259 -3.090251,1.31259 -1.241776,0 -2.300112,-0.4377 -3.175,-1.31259 -0.846666,-0.87488 -1.270206,-1.91907 -1.270206,-3.13262 0,-1.21356 0.42354,-2.24359 1.270206,-3.09025 0.874888,-0.87489 1.933224,-1.31258 3.175,-1.31258 z m 67.26721,1.2702 v 4.61419 h 9.73687 v -4.61419 z m -35.34823,4.95319 -8.509039,14.26631 h 6.731369 l 1.77767,-2.92127 1.73581,2.92127 h 6.77323 z" />
      <path
         id="rect892"
         style="fill:url(#linearGradient895);fill-opacity:1;fill-rule:nonzero;stroke:none;stroke-width:0.311263;stroke-dasharray:none;stroke-opacity:1;filter:url(#filter947)"
         d="m 74.044059,146.4076 c -4.854218,0 -9.00316,1.72144 -12.446268,5.16458 -2.035928,2.03595 -3.465,4.32305 -4.287077,6.86063 h 6.354134 c 0.534671,-0.98268 1.228501,-1.90083 2.081527,-2.75387 2.285998,-2.28601 5.052132,-3.42927 8.297684,-3.42927 3.217332,0 5.968796,1.14326 8.254794,3.42927 0.853025,0.85304 1.546765,1.77119 2.081526,2.75387 h 6.340698 c -0.830082,-2.52626 -2.268767,-4.81336 -4.316015,-6.86063 -3.443108,-3.44314 -7.563228,-5.16458 -12.361003,-5.16458 z m -50.757625,1.48157 3.40341,10.54364 h 6.095752 l -3.40341,-10.54364 z m 7.61969,0 3.399792,10.54364 h 6.088001 l -3.391524,-10.54364 z m 13.165605,0 -3.432349,10.54364 h 6.113839 l 3.414778,-10.54364 z m 7.620206,0 -3.417362,10.54364 h 6.095752 l 3.417362,-10.54364 z m 36.872168,0 6.277136,10.54364 h 6.773231 l -6.277137,-10.54364 z m 8.424292,0 6.296255,10.54364 h 5.34386 l 6.2668,-10.54364 h -6.73085 l -2.20142,3.68301 -2.20141,-3.68301 z m 19.600355,0 -6.27714,10.54364 h 6.74636 l 6.30401,-10.54364 z m 9.05939,0 v 10.54364 h 5.84203 v -10.54364 z m 7.28121,0 v 10.54364 h 5.84202 v -10.54364 z m 20.48919,0 v 10.54364 h 5.84202 v -10.54364 z m 7.28173,0 v 10.54364 h 5.84202 v -10.54364 z m 7.49308,0 v 5.63072 h 17.77979 c -1.00939,1.6532 -1.93955,3.29103 -2.79001,4.91292 h 6.58565 c 1.13656,-1.96679 3.2582,-5.48154 6.36447,-10.54364 z m -94.149291,5.7997 c -2.850442,0 -5.27795,1.00226 -7.281726,3.00604 -0.548537,0.54855 -1.022229,1.12803 -1.420585,1.7379 h 17.361214 c -0.398356,-0.60987 -0.871531,-1.18935 -1.420068,-1.7379 -2.003776,-2.00378 -4.416614,-3.00604 -7.238835,-3.00604 z m 94.149291,1.22784 v 3.5161 h 13.31237 c 0.60764,-1.19461 1.25021,-2.36684 1.92753,-3.5161 z" />
      <path
         id="rect893"
         style="fill:url(#linearGradient899);fill-opacity:1;fill-rule:nonzero;stroke:none;stroke-width:0.311262;stroke-dasharray:none;stroke-opacity:1;filter:url(#filter945)"
         d="m 29.495874,167.12572 4.16202,12.89482 h 6.095752 l -4.16202,-12.89482 z m 7.612972,0 3.407027,10.56628 3.422014,-10.56628 z m 8.348328,0 -4.179073,12.89482 h 6.095752 l 4.179073,-12.89482 z m 11.286649,0 c 0.605831,3.48285 2.237935,6.55344 4.896342,9.21184 3.443109,3.44312 7.577898,5.16454 12.403894,5.16454 4.825997,0 8.946117,-1.72142 12.361003,-5.16454 2.658408,-2.6584 4.290887,-5.72899 4.896859,-9.21184 h -5.983098 c -0.516985,1.90729 -1.523715,3.60885 -3.01997,5.10511 -2.285998,2.286 -5.037462,3.42925 -8.254794,3.42925 -3.245552,0 -6.011686,-1.14325 -8.297684,-3.42925 -1.491233,-1.50964 -2.495913,-3.21121 -3.014287,-5.10511 z m 7.492049,0 c 0.480588,1.50566 1.322841,2.86859 2.526461,4.08915 2.003776,2.00378 4.431284,3.00602 7.281726,3.00602 2.822221,0 5.235059,-1.00224 7.238835,-3.00602 1.20362,-1.22056 2.045356,-2.58349 2.525944,-4.08915 h -6.732922 c -0.835512,0.83538 -1.846023,1.25315 -3.031857,1.25315 -1.21341,0 -2.251963,-0.41777 -3.115055,-1.25315 z m 32.432646,0 -7.681185,12.89482 h 6.773747 l 7.68118,-12.89482 z m 8.476482,0 -7.691,12.89482 h 6.73137 l 1.77767,-2.92127 1.73581,2.92127 h 6.77323 l -7.691,-12.89482 z m 3.33933,0 7.68119,12.89482 h 6.73085 l -7.68118,-12.89482 z m 17.16381,0 v 12.89482 h 5.84203 v -12.89482 z m 7.28121,0 v 12.89482 h 5.84202 v -12.89482 z m 20.48919,0 v 12.89482 h 5.84202 v -12.89482 z m 7.28173,0 v 12.89482 h 5.84202 v -12.89482 z m 10.93421,0 c -1.27312,3.99763 -2.22259,8.29579 -2.84892,12.89482 h 5.8844 c 0.71241,-4.52109 1.76716,-8.81927 3.16466,-12.89482 z m 7.69721,0 c -0.41111,1.14585 -0.77945,2.28314 -1.10536,3.41219 -0.93133,3.13266 -1.62274,6.29353 -2.07429,9.48263 h 5.88388 c 0.42333,-2.73755 1.01618,-5.39047 1.77818,-7.95869 0.46316,-1.59789 1.03552,-3.24317 1.71721,-4.93613 z" />
      <path
         id="path907"
         style="font-size:42.3333px;font-family:FortySecondStreetHB;-inkscape-font-specification:'FortySecondStreetHB, Normal';fill:none;fill-opacity:1;stroke:url(#linearGradient915);stroke-width:0.325437;stroke-opacity:1"
         d="m 74.044059,146.40765 c -0.606777,0 -1.202752,0.0268 -1.787487,0.0806 -0.584737,0.0538 -1.158649,0.13424 -1.721343,0.24183 -1.687894,0.32279 -3.276612,0.88759 -4.766116,1.69448 -2.03e-4,1.1e-4 -3.15e-4,4e-4 -5.18e-4,5.1e-4 -1.489418,0.80692 -2.879818,1.85609 -4.170805,3.14709 -0.473073,0.47308 -0.906082,0.96281 -1.313615,1.46296 -0.128304,0.15748 -0.240958,0.32147 -0.362769,0.48163 -0.266486,0.35037 -0.523732,0.70441 -0.759125,1.06764 -0.125418,0.19353 -0.241526,0.39089 -0.358119,0.58807 -0.206111,0.34857 -0.399214,0.7025 -0.577742,1.06248 -0.101569,0.20479 -0.201915,0.41008 -0.294556,0.61856 -0.170223,0.38307 -0.320355,0.77441 -0.460437,1.16995 -0.04899,0.13832 -0.115409,0.26944 -0.160713,0.40928 h 0.0155 c -0.557935,1.72023 -0.850594,3.55019 -0.850594,5.50095 0,1.10167 0.101193,2.16244 0.280603,3.19206 h -0.0124 c 0.0064,0.0369 0.02074,0.0707 0.02739,0.10749 0.137085,0.75876 0.329833,1.49541 0.564824,2.21484 0.05436,0.16644 0.116613,0.32971 0.176215,0.49403 0.239871,0.66135 0.515006,1.30854 0.839743,1.93581 0.03555,0.0687 0.06317,0.14051 0.09974,0.20876 0.362319,0.67634 0.78736,1.32748 1.249535,1.96372 0.107815,0.1484 0.220066,0.29508 0.333314,0.4413 0.49043,0.63329 1.013245,1.25356 1.605587,1.84589 2.582331,2.58234 5.553394,4.19602 8.913667,4.84157 1.12009,0.21517 2.283728,0.32297 3.490226,0.32297 1.2065,0 2.368852,-0.1078 3.487126,-0.32297 3.354823,-0.64556 6.312713,-2.25923 8.873876,-4.84157 1.329205,-1.3292 2.401724,-2.76159 3.217893,-4.2969 0.816166,-1.5353 1.37598,-3.17351 1.678967,-4.91494 h -5.17e-4 c 0.178877,-1.02809 0.268717,-2.09216 0.268717,-3.19206 0,-1.94714 -0.298905,-3.77689 -0.866097,-5.50095 h 0.01705 c -0.04713,-0.14344 -0.116378,-0.27824 -0.167433,-0.42012 -0.139145,-0.38675 -0.287487,-0.76988 -0.455785,-1.14515 -0.09486,-0.21155 -0.197665,-0.41999 -0.301791,-0.62788 -0.177443,-0.35424 -0.36927,-0.70278 -0.573608,-1.04645 -0.120165,-0.20211 -0.239503,-0.4046 -0.36897,-0.60306 -0.233998,-0.35866 -0.490095,-0.70853 -0.754475,-1.05524 -0.125703,-0.16485 -0.242084,-0.33341 -0.374655,-0.49556 -0.409583,-0.50095 -0.844162,-0.99197 -1.3193,-1.46711 -0.860777,-0.86077 -1.763982,-1.61424 -2.709395,-2.25981 -0.945414,-0.64556 -1.933056,-1.18348 -2.963127,-1.61384 -2.060139,-0.86076 -4.289593,-1.29089 -6.68848,-1.29089 z m -50.757625,1.48157 3.40341,10.54354 2.80603,8.69301 4.16202,12.89482 h 6.095751 l -4.162019,-12.89482 -2.80603,-8.69301 -3.40341,-10.54354 z m 7.61969,0 3.399793,10.54354 2.802929,8.69301 3.407028,10.56629 3.422012,-10.56629 2.815332,-8.69301 3.41478,-10.54354 h -6.096269 l -3.43235,10.54354 -0.123505,0.37878 -0.121958,-0.37878 -3.391523,-10.54354 z m 20.785812,0 -3.417364,10.54354 -2.817398,8.69301 -4.179073,12.89482 h 6.095752 l 4.179073,-12.89482 2.817399,-8.69301 3.417362,-10.54354 z m 36.872167,0 6.277136,10.54354 3.502111,5.88182 -1.67483,2.81119 -7.681186,12.89482 h 6.773746 l 7.68118,-12.89482 1.67432,-2.81119 -3.50211,-5.88182 -6.277137,-10.54354 z m 8.424288,0 6.296259,10.54354 2.67839,4.48499 2.66547,-4.48499 6.2668,-10.54354 h -6.73085 l -2.20142,3.68297 -2.20142,-3.68297 z m 19.600359,0 -6.27714,10.54354 -3.50159,5.88182 1.67431,2.81119 7.68119,12.89482 h 6.73085 l -7.68118,-12.89482 -1.67432,-2.81119 3.5171,-5.88182 6.30401,-10.54354 z m 9.05939,0 v 10.54354 8.69301 12.89482 h 5.84202 v -12.89482 -8.69301 -10.54354 z m 7.28121,0 v 10.54354 8.69301 12.89482 h 5.84202 v -12.89482 -8.69301 -10.54354 z m 20.48919,0 v 10.54354 8.69301 12.89482 h 5.84202 v -12.89482 -8.69301 -10.54354 z m 7.28173,0 v 10.54354 8.69301 12.89482 h 5.84202 v -12.89482 -8.69301 -10.54354 z m 7.49308,0 v 5.63067 h 17.77979 c -1.00939,1.65319 -1.93955,3.29098 -2.79001,4.91287 h 0.0868 c -1.54211,2.94286 -2.91945,5.85334 -3.93826,8.69301 -0.41111,1.14585 -0.77945,2.28315 -1.10536,3.4122 -0.93133,3.13265 -1.62274,6.29352 -2.07429,9.48262 h 5.88388 c 0.42333,-2.73753 1.01619,-5.39049 1.77818,-7.95869 0.46316,-1.59789 1.03552,-3.24317 1.71721,-4.93613 0.97986,-2.43348 2.1855,-4.96521 3.61683,-7.59489 0.15635,-0.28664 0.36323,-0.65269 0.62064,-1.09812 1.13656,-1.96679 3.2582,-5.48145 6.36447,-10.54354 z m -94.149291,4.36045 c 0.804333,0 1.579334,0.0716 2.32544,0.21446 0.373052,0.0714 0.738591,0.16052 1.097091,0.26769 1.59e-4,4e-5 3.57e-4,-6e-5 5.16e-4,0 0.716829,0.21432 1.404795,0.50018 2.063439,0.8573 0.329396,0.17861 0.651505,0.37532 0.966351,0.58963 0.314843,0.21434 0.622128,0.44656 0.922423,0.6966 0.300409,0.25012 0.593681,0.51772 0.879534,0.80358 0.565984,0.56599 1.061937,1.16071 1.487764,1.78386 0.216004,0.31604 0.413805,0.63925 0.593762,0.96997 0.898216,1.65069 1.347722,3.48431 1.347722,5.50095 0,1.16262 -0.153108,2.26112 -0.446484,3.30058 -0.119988,0.4251 -0.260377,0.84142 -0.429432,1.24591 -0.02842,0.068 -0.06527,0.13256 -0.09508,0.19999 -0.150706,0.34087 -0.318729,0.67447 -0.50488,1.00046 -0.06875,0.12042 -0.143449,0.23817 -0.21704,0.35657 -0.171743,0.27626 -0.35693,0.54715 -0.555006,0.81235 -0.08368,0.11205 -0.164317,0.22531 -0.252697,0.33538 -0.287402,0.35795 -0.591527,0.70884 -0.928625,1.04593 -0.285751,0.28575 -0.579238,0.55353 -0.879534,0.80358 -0.300193,0.24993 -0.607692,0.48234 -0.922423,0.69659 -0.741631,0.50485 -1.528912,0.89842 -2.351279,1.20509 -0.224825,0.0838 -0.44765,0.17232 -0.678511,0.24133 -0.358499,0.10717 -0.724555,0.19675 -1.097607,0.2682 -0.746106,0.14291 -1.521107,0.21446 -2.32544,0.21446 -0.811387,0 -1.59311,-0.0715 -2.34456,-0.21446 -0.751449,-0.1429 -1.472719,-0.35707 -2.164209,-0.64284 -1.382977,-0.57158 -2.645917,-1.42895 -3.788916,-2.57195 -0.745616,-0.75482 -1.369866,-1.5578 -1.872237,-2.40864 -0.50237,-0.85082 -0.882862,-1.74951 -1.142049,-2.69647 -0.276286,-1.0094 -0.414445,-2.07346 -0.414445,-3.19206 0,-2.01664 0.448625,-3.85026 1.346688,-5.50095 h 5.17e-4 c 0.534671,-0.98268 1.2285,-1.9008 2.081526,-2.75383 1.428626,-1.42864 3.044792,-2.41123 4.848284,-2.94711 0.360735,-0.10717 0.729116,-0.19624 1.104841,-0.26769 0.75145,-0.1429 1.533173,-0.21446 2.34456,-0.21446 z m 0,1.43919 c -0.356306,0 -0.706462,0.0157 -1.049549,0.047 -0.342907,0.0313 -0.67954,0.078 -1.009239,0.14056 -0.329867,0.0626 -0.653326,0.14119 -0.969968,0.23512 -0.633112,0.18789 -1.239821,0.43833 -1.820043,0.75138 -0.290183,0.15656 -0.574163,0.32889 -0.851112,0.51676 -0.553773,0.3757 -1.080973,0.81433 -1.581814,1.31517 -0.263428,0.26342 -0.507601,0.53478 -0.73639,0.81236 -0.07185,0.0872 -0.133105,0.1786 -0.201538,0.26716 -0.149631,0.19364 -0.29768,0.38778 -0.430981,0.58809 -0.01595,0.024 -0.03597,0.0462 -0.05168,0.0703 h 0.0088 c -1.057862,1.61849 -1.593701,3.45031 -1.593701,5.50095 0,1.12702 0.159535,2.19108 0.479041,3.19206 0.240294,0.75284 0.571099,1.46979 0.992187,2.1513 0.421091,0.6815 0.932465,1.32757 1.534275,1.93785 0.250471,0.25047 0.5073,0.48518 0.771012,0.70435 0.527424,0.43836 1.081548,0.81393 1.661914,1.12706 0.290182,0.15658 0.586971,0.29746 0.890384,0.42272 0.606828,0.25052 1.239895,0.43852 1.899627,0.56379 0.329865,0.0626 0.666153,0.10976 1.009239,0.14107 0.343254,0.0313 0.693066,0.047 1.049549,0.047 0.352603,0 0.698874,-0.0157 1.038696,-0.047 0.339985,-0.0313 0.673779,-0.0784 1.000973,-0.14107 0.327413,-0.0627 0.648125,-0.1411 0.962732,-0.23512 0.202369,-0.0605 0.397725,-0.13792 0.594795,-0.21137 0.531084,-0.19795 1.042702,-0.44371 1.535307,-0.73586 0.338283,-0.20064 0.667398,-0.42365 0.987538,-0.6687 0.384299,-0.29415 0.760633,-0.6087 1.118793,-0.96687 0.278208,-0.28212 0.532473,-0.5739 0.772046,-0.87125 0.07726,-0.0959 0.145353,-0.19553 0.218592,-0.29302 0.156047,-0.20768 0.30609,-0.41764 0.4439,-0.63252 0.07272,-0.11341 0.140614,-0.22875 0.208257,-0.34416 0.123663,-0.21096 0.239025,-0.4252 0.345715,-0.64286 0.0576,-0.11752 0.115297,-0.23502 0.167948,-0.3545 0.102861,-0.23337 0.193003,-0.4718 0.276987,-0.71261 0.02807,-0.0805 0.06654,-0.15688 0.0925,-0.23823 h -0.0083 c 0.320194,-1.00191 0.487826,-2.06384 0.487826,-3.19206 0,-2.05064 -0.536356,-3.88246 -1.594218,-5.50095 h 0.0088 c -0.01571,-0.0241 -0.03573,-0.0463 -0.05168,-0.0703 -0.1333,-0.20031 -0.281349,-0.39445 -0.43098,-0.58809 -0.0684,-0.0886 -0.129727,-0.18 -0.201538,-0.26716 -0.22879,-0.27758 -0.472447,-0.54894 -0.735874,-0.81236 -1.252235,-1.25223 -2.664603,-2.11354 -4.236433,-2.58331 -1.6e-4,-4e-5 -3.58e-4,5e-5 -5.16e-4,0 -0.628648,-0.18784 -1.282887,-0.31302 -1.962671,-0.37568 -1.69e-4,-2e-5 -3.49e-4,1e-5 -5.18e-4,0 -0.339984,-0.0313 -0.685918,-0.047 -1.038696,-0.047 z m 94.149291,1.22783 v 3.51607 2.07222 h 5.96863 c -0.95011,2.10677 -1.79278,4.31374 -2.5275,6.62079 -0.63656,1.99881 -1.19228,4.07273 -1.66708,6.22184 -0.47486,2.14916 -0.86868,4.37349 -1.18184,6.67298 h 5.8844 c 0.56584,-3.59094 1.41007,-7.00113 2.40812,-10.31099 0.18502,-0.61361 0.34169,-1.24557 0.54157,-1.84951 1.08524,-3.27916 2.36248,-6.43301 3.88555,-9.42733 h 5.2e-4 c 0.60764,-1.19461 1.25021,-2.36681 1.92753,-3.51607 z m -94.149291,4.61419 c 1.213555,0 2.243584,0.4377 3.09025,1.31259 0.87489,0.84665 1.312065,1.87668 1.312065,3.09024 0,1.21355 -0.437175,2.25775 -1.312065,3.13263 -0.06655,0.0688 -0.136332,0.1299 -0.205154,0.19327 -0.04897,0.0451 -0.09716,0.092 -0.147278,0.13436 -0.06457,0.0546 -0.131444,0.10397 -0.197922,0.15399 -0.04666,0.0351 -0.09244,0.0726 -0.140042,0.10542 -0.06915,0.0478 -0.140737,0.0892 -0.211874,0.13229 -0.04966,0.0301 -0.0982,0.0627 -0.148828,0.0904 -0.06208,0.034 -0.126637,0.0625 -0.190169,0.093 -0.06275,0.0302 -0.124458,0.0631 -0.188619,0.0899 -0.06032,0.0252 -0.122911,0.045 -0.184484,0.0672 -0.06767,0.0244 -0.13442,0.051 -0.203607,0.0718 -0.07582,0.0228 -0.154394,0.0394 -0.232027,0.0579 -0.0585,0.0139 -0.115651,0.0309 -0.175182,0.0424 -0.09385,0.0181 -0.190398,0.0289 -0.286804,0.0408 -0.04575,0.006 -0.0901,0.0148 -0.136426,0.0191 -0.144502,0.0134 -0.291716,0.0207 -0.441834,0.0207 -0.153821,0 -0.305009,-0.007 -0.453203,-0.0207 -0.04474,-0.004 -0.08755,-0.0128 -0.131774,-0.0181 -0.10143,-0.0121 -0.20306,-0.0233 -0.301791,-0.0419 -0.06005,-0.0113 -0.117679,-0.0282 -0.176733,-0.0418 -0.08078,-0.0187 -0.162415,-0.0353 -0.241328,-0.0584 -0.06956,-0.0204 -0.136526,-0.0469 -0.204639,-0.0708 -0.06431,-0.0225 -0.129743,-0.0426 -0.192753,-0.0682 -0.06555,-0.0266 -0.128605,-0.0594 -0.192754,-0.0894 -0.06615,-0.0309 -0.133259,-0.0596 -0.19792,-0.0941 -0.05094,-0.0272 -0.09985,-0.059 -0.149861,-0.0884 -0.07385,-0.0434 -0.148305,-0.0852 -0.220142,-0.13332 -0.04941,-0.0331 -0.09676,-0.0711 -0.145211,-0.10645 -0.06856,-0.0501 -0.137473,-0.0994 -0.204122,-0.154 -0.04899,-0.0402 -0.09623,-0.0845 -0.144177,-0.12712 -0.07351,-0.0653 -0.1475,-0.12889 -0.218591,-0.19999 -0.846666,-0.87488 -1.270207,-1.91908 -1.270207,-3.13263 0,-1.21356 0.423541,-2.24359 1.270207,-3.09024 0.874887,-0.87489 1.933223,-1.31259 3.174999,-1.31259 z m 67.267211,1.27021 v 4.6142 h 9.73687 v -4.6142 z m -35.34823,4.95318 -0.81804,1.3715 -7.690999,12.89482 h 6.731369 l 1.77767,-2.92127 1.73581,2.92127 h 6.77323 l -7.691,-12.89482 z" />
    </g>
  </g>
</svg>
